<svg width="135" height="28" viewBox="0 0 135 28" fill="none"
    xmlns="http://www.w3.org/2000/svg">
    <g clip-path="url(#clip0_21_207)">
        <path d="M41.2112 8.77815L45.3558 20.6741C45.4034 20.8051 45.4297 20.9429 45.4337 21.0822C45.4354 21.2136 45.4102 21.3438 45.3596 21.465C45.309 21.5863 45.2341 21.6958 45.1395 21.7869C45.0448 21.878 44.9326 21.9487 44.8095 21.9947C44.6865 22.0407 44.5553 22.0609 44.4242 22.0542C44.2128 22.0629 44.0041 22.0034 43.8291 21.8845C43.6541 21.7656 43.5219 21.5935 43.4522 21.3937L42.5725 18.6912H37.7126L36.8372 21.3937C36.7699 21.591 36.6412 21.7615 36.4699 21.8804C36.2986 21.9992 36.0938 22.0602 35.8854 22.0542C35.7543 22.0609 35.6231 22.0407 35.5001 21.9947C35.3771 21.9487 35.2648 21.878 35.1702 21.7869C35.0756 21.6958 35.0006 21.5863 34.95 21.465C34.8994 21.3438 34.8742 21.2136 34.876 21.0822C34.88 20.9429 34.9063 20.8051 34.9538 20.6741L39.074 8.77815C39.1574 8.56178 39.3042 8.3756 39.4951 8.24389C39.6859 8.11218 39.9121 8.04105 40.144 8.03979C40.3769 8.03497 40.6054 8.10374 40.797 8.2363C40.9886 8.36886 41.1336 8.55847 41.2112 8.77815ZM38.3154 16.8251H41.9697L40.1426 11.2081L38.3154 16.8251Z" fill="#75787B"></path>
        <path d="M54.9819 8.75796C55.1614 8.8365 55.3128 8.96784 55.4158 9.13452C55.5189 9.3012 55.5687 9.4953 55.5587 9.691C55.563 9.8114 55.543 9.93143 55.5001 10.044C55.4571 10.1566 55.3921 10.2594 55.3087 10.3464C55.2254 10.4333 55.1254 10.5027 55.0148 10.5504C54.9042 10.5981 54.7851 10.6232 54.6646 10.624C54.3531 10.624 54.1397 10.5274 53.8094 10.3919C53.0736 10.0745 52.2772 9.92193 51.4761 9.94481C50.3686 9.94481 49.3129 10.5217 49.3129 11.5773C49.3129 12.5103 49.8191 12.9574 50.9267 13.4621L53.2124 14.5091C54.5103 15.1119 55.9337 15.9873 55.9337 18.2413C55.9337 20.5934 54.0286 22.0513 51.5021 22.0513C50.2559 22.0685 49.0213 21.81 47.8867 21.2942C47.6992 21.2221 47.5386 21.0937 47.427 20.9267C47.3154 20.7596 47.2584 20.562 47.2637 20.3612C47.2637 19.7843 47.6531 19.3892 48.1968 19.3892C48.4693 19.3892 48.6438 19.4469 49.0721 19.6228C49.8352 19.9696 50.6639 20.1481 51.5021 20.1463C52.9009 20.1463 53.8729 19.506 53.8729 18.3004C53.8729 17.2505 53.2701 16.7833 52.1049 16.2209L49.7326 15.1119C48.3727 14.4702 47.281 13.4592 47.281 11.6508C47.281 9.4545 49.0303 8.03546 51.5958 8.03546C52.96 8.03979 54.0286 8.29216 54.9819 8.75796Z" fill="#75787B"></path>
        <path d="M65.4934 8.75796C65.673 8.8365 65.8243 8.96784 65.9274 9.13452C66.0304 9.3012 66.0802 9.4953 66.0703 9.691C66.0747 9.81145 66.0549 9.93157 66.012 10.0442C65.9692 10.1569 65.9041 10.2598 65.8207 10.3468C65.7373 10.4338 65.6373 10.5032 65.5266 10.5508C65.4158 10.5985 65.2967 10.6234 65.1762 10.624C64.8661 10.624 64.6512 10.5274 64.321 10.3919C63.5856 10.0745 62.7897 9.92195 61.9891 9.94481C60.8801 9.94481 59.8259 10.5217 59.8259 11.5773C59.8259 12.5103 60.3321 12.9574 61.4397 13.4621L63.7239 14.5091C65.0218 15.1119 66.4467 15.9873 66.4467 18.2413C66.4467 20.5934 64.5416 22.0513 62.0136 22.0513C60.7674 22.0685 59.5328 21.81 58.3982 21.2942C58.2108 21.2221 58.0504 21.0936 57.9391 20.9265C57.8278 20.7594 57.771 20.5619 57.7767 20.3612C57.7767 19.7843 58.1646 19.3892 58.7097 19.3892C58.9809 19.3892 59.1568 19.4469 59.5837 19.6228C60.3467 19.9696 61.1755 20.1481 62.0136 20.1463C63.4139 20.1463 64.3859 19.506 64.3859 18.3004C64.3859 17.2505 63.7831 16.7833 62.6164 16.2209L60.2456 15.1119C58.8842 14.4702 57.794 13.4592 57.794 11.6508C57.794 9.4545 59.5433 8.03546 62.1102 8.03546C63.4716 8.03979 64.5359 8.29216 65.4934 8.75796Z" fill="#75787B"></path>
        <path d="M75.7482 8.23303C76.0087 8.23303 76.2585 8.3365 76.4427 8.52068C76.6268 8.70485 76.7303 8.95465 76.7303 9.21511C76.7303 9.47557 76.6268 9.72537 76.4427 9.90954C76.2585 10.0937 76.0087 10.1972 75.7482 10.1972H70.8119V13.8126H75.4959C75.7563 13.8126 76.0061 13.916 76.1903 14.1002C76.3745 14.2844 76.4779 14.5342 76.4779 14.7946C76.4779 15.0551 76.3745 15.3049 76.1903 15.4891C76.0061 15.6732 75.7563 15.7767 75.4959 15.7767H70.8119V19.8968H75.8852C76.1457 19.8968 76.3955 20.0003 76.5797 20.1845C76.7638 20.3686 76.8673 20.6184 76.8673 20.8789C76.8673 21.1394 76.7638 21.3891 76.5797 21.5733C76.3955 21.7575 76.1457 21.861 75.8852 21.861H69.9942C69.8353 21.8658 69.677 21.8387 69.5287 21.7812C69.3805 21.7237 69.2453 21.6371 69.1311 21.5264C69.0169 21.4158 68.9261 21.2833 68.8641 21.1369C68.802 20.9905 68.77 20.8331 68.7699 20.6741V9.42566C68.77 9.26665 68.802 9.10928 68.8641 8.96288C68.9261 8.81647 69.0169 8.68401 69.1311 8.57333C69.2453 8.46266 69.3805 8.37603 69.5287 8.31856C69.677 8.2611 69.8353 8.23398 69.9942 8.2388L75.7482 8.23303Z" fill="#75787B"></path>
        <path d="M87.4654 8.23303C87.7258 8.23303 87.9756 8.3365 88.1598 8.52068C88.344 8.70485 88.4475 8.95465 88.4475 9.21511C88.4475 9.47557 88.344 9.72537 88.1598 9.90954C87.9756 10.0937 87.7258 10.1972 87.4654 10.1972H84.5336V21.0245C84.5236 21.2911 84.4107 21.5435 84.2185 21.7286C84.0264 21.9137 83.77 22.0171 83.5032 22.0171C83.2364 22.0171 82.98 21.9137 82.7878 21.7286C82.5957 21.5435 82.4828 21.2911 82.4728 21.0245V10.1972H79.5568C79.2964 10.1972 79.0466 10.0937 78.8624 9.90954C78.6782 9.72537 78.5748 9.47557 78.5748 9.21511C78.5748 8.95465 78.6782 8.70485 78.8624 8.52068C79.0466 8.3365 79.2964 8.23303 79.5568 8.23303H87.4654Z" fill="#75787B"></path>
        <path d="M94.7769 8.23303C97.3237 8.23303 98.8393 9.63332 98.8393 11.9667C98.8393 13.2098 98.2178 14.1039 97.3236 14.7067C97.9087 15.0104 98.3971 15.4718 98.7337 16.0385C99.0704 16.6053 99.2418 17.2549 99.2287 17.9139C99.2287 20.3655 97.6928 21.861 94.8937 21.861H91.7441C91.5851 21.866 91.4268 21.839 91.2784 21.7816C91.1301 21.7242 90.9948 21.6376 90.8805 21.5269C90.7663 21.4162 90.6755 21.2836 90.6136 21.1371C90.5516 20.9906 90.5197 20.8332 90.5198 20.6741V9.42566C90.5197 9.26659 90.5516 9.10913 90.6136 8.96264C90.6755 8.81614 90.7663 8.6836 90.8805 8.57288C90.9948 8.46217 91.1301 8.37554 91.2784 8.31815C91.4268 8.26076 91.5851 8.23377 91.7441 8.2388L94.7769 8.23303ZM92.5604 10.1381V13.8515H94.6601C95.8844 13.8515 96.7785 13.1708 96.7785 12.0041C96.7785 10.8375 95.9825 10.1381 94.7769 10.1381H92.5604ZM92.5604 15.7623V19.9617H94.8937C96.2738 19.9617 97.1866 19.183 97.1866 17.862C97.1866 16.541 96.1368 15.7623 94.7956 15.7623H92.5604Z" fill="#75787B"></path>
        <path d="M107.202 8.77811L111.342 20.6741C111.389 20.8053 111.416 20.9429 111.42 21.0822C111.422 21.2135 111.397 21.3438 111.346 21.465C111.296 21.5862 111.221 21.6957 111.126 21.7868C111.031 21.8779 110.919 21.9487 110.796 21.9946C110.673 22.0406 110.542 22.0609 110.411 22.0542C110.199 22.0631 109.991 22.0037 109.816 21.8848C109.64 21.7658 109.508 21.5936 109.439 21.3937L108.562 18.6912H103.702L102.828 21.3937C102.76 21.5908 102.631 21.7612 102.46 21.8799C102.288 21.9987 102.083 22.0597 101.875 22.0542C101.744 22.0609 101.613 22.0406 101.49 21.9946C101.367 21.9487 101.254 21.8779 101.16 21.7868C101.065 21.6957 100.99 21.5862 100.94 21.465C100.889 21.3438 100.864 21.2135 100.865 21.0822C100.87 20.9429 100.896 20.8053 100.943 20.6741L105.059 8.77811C105.141 8.56117 105.288 8.37437 105.478 8.24249C105.669 8.11062 105.896 8.03991 106.128 8.03975C106.362 8.03362 106.592 8.10176 106.785 8.23439C106.978 8.36703 107.124 8.55736 107.202 8.77811ZM104.305 16.8251H107.959L106.132 11.2081L104.305 16.8251Z" fill="#75787B"></path>
        <path d="M122.941 9.06946V20.9856C122.939 21.2685 122.825 21.5389 122.625 21.7388C122.425 21.9387 122.154 22.052 121.871 22.0542C121.662 22.0527 121.458 21.994 121.28 21.8845C121.102 21.7749 120.957 21.6186 120.862 21.4327L115.634 12.4916V21.026C115.634 21.1601 115.608 21.2928 115.556 21.4167C115.505 21.5406 115.43 21.6531 115.335 21.748C115.24 21.8428 115.128 21.918 115.004 21.9693C114.88 22.0206 114.747 22.047 114.613 22.047C114.479 22.047 114.346 22.0206 114.222 21.9693C114.099 21.918 113.986 21.8428 113.891 21.748C113.796 21.6531 113.721 21.5406 113.67 21.4167C113.618 21.2928 113.592 21.1601 113.592 21.026V9.10839C113.591 8.82775 113.7 8.55789 113.897 8.35769C114.093 8.15749 114.361 8.04321 114.642 8.03979C114.854 8.03868 115.063 8.09612 115.244 8.20577C115.426 8.31543 115.574 8.47307 115.672 8.66134L120.901 17.5837V9.07522C120.897 8.93865 120.921 8.80278 120.972 8.67583C121.022 8.54889 121.098 8.43352 121.195 8.33672C121.291 8.23991 121.406 8.16368 121.533 8.11264C121.659 8.0616 121.795 8.03682 121.932 8.03979C122.067 8.03796 122.2 8.06349 122.325 8.11485C122.45 8.16621 122.563 8.24232 122.657 8.33858C122.751 8.43483 122.825 8.54924 122.874 8.67487C122.923 8.80049 122.946 8.93473 122.941 9.06946Z" fill="#75787B"></path>
        <path d="M134.478 9.01172C134.475 9.28878 134.364 9.55362 134.168 9.75008L129.483 14.8047L134.361 20.2847C134.634 20.5947 134.731 20.7894 134.731 21.062C134.728 21.1947 134.699 21.3256 134.646 21.4472C134.593 21.5689 134.517 21.6789 134.421 21.7709C134.325 21.8629 134.213 21.9352 134.089 21.9835C133.965 22.0319 133.834 22.0554 133.701 22.0527C133.538 22.0466 133.379 22.0046 133.234 21.9299C133.09 21.8551 132.963 21.7493 132.864 21.6201L127.873 15.9122V21.0432C127.863 21.3072 127.752 21.557 127.561 21.7403C127.371 21.9235 127.117 22.0259 126.853 22.0259C126.589 22.0259 126.335 21.9235 126.145 21.7403C125.954 21.557 125.843 21.3072 125.833 21.0432V9.02902C125.843 8.76506 125.954 8.51522 126.145 8.33198C126.335 8.14874 126.589 8.04637 126.853 8.04637C127.117 8.04637 127.371 8.14874 127.561 8.33198C127.752 8.51522 127.863 8.76506 127.873 9.02902V13.7736L132.603 8.48679C132.856 8.19837 133.089 8.03973 133.459 8.03973C133.722 8.03468 133.977 8.13396 134.168 8.31598C134.359 8.498 134.471 8.74804 134.478 9.01172Z" fill="#75787B"></path>
        <path d="M24.5332 12.2594C24.5321 9.83724 23.8135 7.46974 22.468 5.45569C21.1225 3.44164 19.2106 1.87133 16.9734 0.942994C14.7363 0.0146545 12.2742 -0.230106 9.89809 0.239608C7.52196 0.709322 5.33824 1.87246 3.62258 3.58219L3.61393 3.5894C2.47068 4.7249 1.56352 6.07548 0.944748 7.56326C0.325974 9.05104 0.00782808 10.6466 0.00865333 12.2579V24.5851C0.0270145 25.4784 0.39479 26.329 1.03308 26.9543C1.67136 27.5796 2.52931 27.9298 3.42285 27.9298C4.31639 27.9298 5.17433 27.5796 5.81262 26.9543C6.4509 26.329 6.81868 25.4784 6.83704 24.5851V12.2752C6.83475 10.8329 7.4055 9.44879 8.42373 8.4273C9.44197 7.40582 10.8243 6.83067 12.2666 6.82837C13.7089 6.82608 15.093 7.39683 16.1145 8.41507C17.136 9.4333 17.7111 10.8156 17.7134 12.2579V24.5851C17.7318 25.4784 18.0996 26.329 18.7379 26.9543C19.3761 27.5796 20.2341 27.9298 21.1276 27.9298C22.0212 27.9298 22.8791 27.5796 23.5174 26.9543C24.1557 26.329 24.5235 25.4784 24.5418 24.5851V12.2594H24.5332Z" fill="url(#paint0_linear_21_207)"></path>
        <path d="M12.2666 8.85022C11.3613 8.85022 10.4931 9.20985 9.8529 9.85C9.21275 10.4902 8.85312 11.3584 8.85312 12.2637V19.7555C8.87148 20.6488 9.23926 21.4994 9.87754 22.1247C10.5158 22.75 11.3738 23.1002 12.2673 23.1002C13.1609 23.1002 14.0188 22.75 14.6571 22.1247C15.2954 21.4994 15.6631 20.6488 15.6815 19.7555V12.2637C15.6811 11.3583 15.3212 10.49 14.6808 9.84992C14.0404 9.20981 13.172 8.85022 12.2666 8.85022Z" fill="url(#paint1_linear_21_207)"></path>
    </g>
    <defs>
        <linearGradient id="paint0_linear_21_207" x1="1.12917" y1="28.7499" x2="22.7579" y2="5.35021" gradientUnits="userSpaceOnUse">
            <stop stop-color="#B18AFF"></stop>
            <stop offset="0.06" stop-color="#A97FF8"></stop>
            <stop offset="0.37" stop-color="#8149D6"></stop>
            <stop offset="0.65" stop-color="#6421BE"></stop>
            <stop offset="0.87" stop-color="#5309AF"></stop>
            <stop offset="1" stop-color="#4C00A9"></stop>
        </linearGradient>
        <linearGradient id="paint1_linear_21_207" x1="0.784518" y1="28.4312" x2="22.4133" y2="5.03296" gradientUnits="userSpaceOnUse">
            <stop stop-color="#B18AFF"></stop>
            <stop offset="0.06" stop-color="#A97FF8"></stop>
            <stop offset="0.37" stop-color="#8149D6"></stop>
            <stop offset="0.65" stop-color="#6421BE"></stop>
            <stop offset="0.87" stop-color="#5309AF"></stop>
            <stop offset="1" stop-color="#4C00A9"></stop>
        </linearGradient>
        <clipPath id="clip0_21_207">
            <rect width="134.736" height="28" fill="white"></rect>
        </clipPath>
    </defs>
</svg>